<?xml version="1.0" encoding="UTF-8"?>
<svg xmlns="http://www.w3.org/2000/svg" viewBox="0 0 1451.44 357.48">
  <g><path fill="#0a0a0a" d="M163.01,186.77h165.52v121.57l-2.89,2.92c-12.09,12.21-31.99,21.85-60.83,29.49-27.54,7.3-58.23,11-91.21,11s-62.54-5.97-88.42-17.74c-26.27-11.95-47.14-29.12-62.02-51.03C8.21,260.96.42,235.74,0,208v-53.45c0-27.32,7.33-52.21,21.79-73.97,14.41-21.68,34.86-38.62,60.77-50.37,25.5-11.56,54.46-17.42,86.08-17.42,43.81,0,80.21,8.44,108.2,25.07,29.09,17.3,46.24,41.4,50.99,71.65l1.81,11.55h-35.54l-1.68-7.93c-4.68-22.02-16.94-38.49-37.5-50.33-21.3-12.27-50.33-18.5-86.28-18.5-40.13,0-72.78,10.46-97.05,31.1-24.12,20.51-35.84,46.82-35.84,80.43v49.47c0,22.23,5.68,42.28,16.9,59.58,11.25,17.36,27.41,31.02,48.03,40.62,21.02,9.78,45.55,14.74,72.92,14.74s53.19-2.99,76.58-8.89c23.59-5.94,36.04-12.25,42.6-17.16v-75.91h-129.77v-31.51Z"/>
      <rect fill="#0a0a0a" x="414.97" width="35.75" height="347.48"/>
      <path fill="#0a0a0a" d="M786.85,151.74c-12.76-18.96-30.7-33.78-53.3-44.03-22.21-10.07-47.54-15.18-75.29-15.18s-53.48,5.26-75.81,15.64c-22.7,10.56-40.57,25.57-53.12,44.61-12.61,19.13-19,40.96-19,64.88v10.32c.21,23.63,6.76,45.24,19.48,64.22,12.65,18.89,30.58,33.74,53.28,44.14,22.3,10.22,47.79,15.41,75.76,15.41s53.48-5.26,75.8-15.65c22.71-10.55,40.54-25.53,52.99-44.51,12.51-19.06,18.85-40.92,18.85-64.97v-10.33c-.21-23.77-6.82-45.49-19.64-64.55ZM770.74,224.27c0,28.36-9.99,50.86-30.55,68.79-20.67,18.03-48.03,27.18-81.34,27.18-22.29,0-42.27-4.19-59.38-12.44-16.81-8.11-30.07-19.5-39.41-33.87-9.41-14.46-13.98-29.94-13.98-47.31v-6.83c0-27.66,10.05-49.96,30.72-68.18,20.77-18.29,48.17-27.57,81.46-27.57,21.88,0,41.66,4.22,58.76,12.54,16.84,8.18,30.16,19.66,39.6,34.1,9.5,14.54,14.12,29.91,14.12,46.98v6.61Z"/>
      <path fill="#0a0a0a" d="M1001.55,346.34l-9.44,2.51c-7.33,1.95-18.95,2.9-35.52,2.9-25.83,0-44.19-5.46-56.14-16.69-11.93-11.22-18.09-28.47-18.31-51.27v-155.48h-58.32v-31.52h58.32v-62.25h36.04v62.25h71.74v31.52h-71.74v153.9c0,13.68,2.77,23.59,8.25,29.47,5.29,5.68,15.14,8.56,29.28,8.56,8.17,0,18.32-.63,30.17-1.87l8.7-.91,6.97,28.88Z"/>
      <rect fill="#0a0a0a" x="1055.65" y="86.79" width="35.75" height="260.69"/>
      <path fill="#0a0a0a" d="M1315.07,219.16l130.55-132.37h-76.03l-92.25,93.84-92.51-93.84h-76.01l130.55,132.37-136.37,138.32h75.72l98.37-99.83,98.65,99.83h75.7l-136.37-138.32ZM1150.8,337.48l116.65-118.33-110.81-112.36h19.83l100.9,102.34,100.6-102.34h19.83l-110.81,112.36,116.65,118.33h-19.54l-107.03-108.31-106.73,108.31h-19.54Z"/></g>
</svg>
