<?xml version="1.0" encoding="UTF-8"?>
<svg id="Layer_2" data-name="Layer 2" xmlns="http://www.w3.org/2000/svg" viewBox="0 0 1524.85 1490.3">
  <defs>
    <style>
      .cls-1 {
        fill: #080b28;
      }

      .cls-2 {
        fill: #fcca69;
      }
    </style>
  </defs>
  <g id="Layer_1-2" data-name="Layer 1">
    <g>
      <path class="cls-1" d="M1435.38,438.74c0,2.09-.03,4.16-.1,6.25l-9.67-2.3-6.23-1.49-5-1.2-7.42-1.78-5.32-1.27-.97-.23-6.63-1.61v.03l-5.44-1.29-4.62-1.11-1.24-.31c-1.58-33.23-15.67-65.45-40.05-89.27-16.61-16.24-38.01-28.57-63.5-34.65l-50.9-12.16-51.59-12.33L220.23,55.54c-3.9-.93-7.8-1.69-11.67-2.28-7.08-1.08-14.08-1.61-20.98-1.61h-.01c-7.14,0-14.14.56-20.98,1.64-64.39,10.13-114.12,65.98-114.12,131.39,0,12.45,1.81,25.23,5.65,38.12l279.01,935.65,14.84,49.76,12.99,43.57c6.83,22.91,18.92,42.12,34.36,57.2,18.56,18.13,41.96,30.26,66.9,35.61l4.06,13.63,2.69,9,3.09,10.38h.01l6.35,21.32c-20.01-1.35-39.58-5.79-58.33-13.27-23.3-9.3-44.06-22.75-61.73-40-22.56-22.04-38.62-48.72-47.75-79.31L7.76,237.33c-5.14-17.27-7.76-34.99-7.76-52.66,0-24.69,5-48.77,14.86-71.54,9.45-21.85,22.95-41.55,40.12-58.53,17.23-17.02,37.24-30.41,59.47-39.79,16.76-7.07,34.23-11.64,52.14-13.64,6.93-.76,13.93-1.16,20.98-1.16h.01c6.97,0,13.97.39,20.97,1.17,8.04.89,16.08,2.29,24.04,4.19l956.48,228.5,51.59,12.33,50.89,12.16c33.58,8.01,64.04,24.67,88.1,48.18,35.4,34.59,55.72,82.78,55.72,132.21Z"/>
      <g>
        <path class="cls-2" d="M1343.48,447.13c-.19,1.64-.42,3.28-.68,4.91-.13.82-.26,1.63-.41,2.45-.28,1.58-.59,3.16-.93,4.74-.19.86-.38,1.72-.59,2.58-.37,1.55-.77,3.09-1.2,4.62-.02.11-.05.22-.09.33-.02.1-.05.2-.09.3-.12.46-.25.91-.39,1.36-.28.95-.57,1.9-.88,2.85-.02.07-.05.14-.07.21-.22.68-.44,1.36-.68,2.04-.13.38-.26.75-.39,1.12s-.26.74-.4,1.11c-.07.2-.14.4-.22.6-.47,1.26-.95,2.52-1.47,3.77-.12.29-.23.58-.36.87-.12.32-.26.63-.4.94-.14.35-.29.7-.45,1.05-.05.12-.1.24-.15.36-.7,1.59-1.43,3.17-2.2,4.73-.37.75-.74,1.5-1.13,2.24-.33.66-.68,1.32-1.03,1.97-.29.54-.58,1.08-.88,1.61-.06.11-.12.22-.19.33-.91,1.63-1.86,3.25-2.86,4.86-.06.11-.13.23-.21.34-.12.2-.25.41-.38.61-.34.53-.68,1.06-1.02,1.59-.08.13-.17.27-.26.4-.33.49-.66.99-1,1.48-.01,0-.01.03-.03.04-.05.1-.12.19-.19.29-.23.34-.46.68-.7,1.02-.06.09-.12.19-.2.28-.02.04-.05.09-.09.13,0,.02-.02.03-.03.05-.03.05-.06.09-.1.14-.06.1-.13.19-.2.28,0,.02-.01.03-.03.04-.48.68-.97,1.36-1.47,2.03-.25.34-.5.68-.76,1.02,0,0,.01.01-.01.01-.01.03-.04.07-.07.1t-.02.02c-.16.23-.33.45-.51.68-.04.06-.09.13-.15.19-.27.36-.55.71-.83,1.07-.72.93-1.46,1.85-2.22,2.76-.05.07-.11.14-.18.21-.01.02-.03.04-.06.07-.25.31-.51.61-.77.92,0,.01-.01.02-.03.04-.35.41-.7.83-1.08,1.25-.38.44-.76.88-1.15,1.31-.98,1.11-2,2.21-3.04,3.3l-716.62,751.33c-.41.43-.82.85-1.23,1.27l-.24.24c-.46.47-.92.94-1.39,1.4-.29.28-.57.56-.86.84-.42.41-.84.81-1.26,1.21-.3.28-.6.56-.9.83-.42.4-.84.78-1.26,1.16-.56.51-1.12,1.01-1.69,1.51-.21.19-.43.37-.64.56-.22.19-.44.38-.66.56-.21.18-.41.35-.62.52-.29.25-.58.49-.88.73-1.6,1.33-3.23,2.62-4.88,3.85-.18.14-.36.27-.54.4-1.27.94-2.54,1.85-3.83,2.73-.22.16-.43.3-.65.44-.09.07-.18.13-.27.18-.03.02-.05.04-.08.05-.03.02-.05.04-.08.06-.04.03-.08.06-.11.08-.08.06-.16.11-.23.15-.74.5-1.49.99-2.24,1.46-.3.19-.59.38-.89.56-.98.62-1.96,1.22-2.95,1.79-.77.46-1.55.91-2.33,1.35-.42.23-.83.46-1.25.68-.15.09-.29.17-.44.24-.18.11-.37.21-.56.3-.21.12-.42.23-.63.34-.75.39-1.51.78-2.27,1.16-.85.44-1.72.86-2.58,1.26-.81.39-1.63.76-2.44,1.13-.06.02-.11.05-.16.07-.87.38-1.74.76-2.62,1.13-.88.36-1.76.72-2.64,1.07-.41.16-.83.32-1.25.48-1.26.48-2.52.93-3.78,1.37-1,.35-2.01.68-3.02,1-.82.26-1.65.51-2.47.75-.19.06-.38.12-.57.17-.76.22-1.52.43-2.29.63-.9.25-1.81.49-2.72.7-.88.21-1.76.43-2.65.63-.03,0-.05,0-.07,0-1.78.39-3.57.75-5.37,1.07-.25.05-.49.09-.74.13-.7.12-1.4.23-2.1.34-.59.09-1.18.18-1.77.26-.02,0-.05,0-.07,0-.04.01-.09.02-.13.02-.44.06-.87.12-1.31.17-.74.1-1.48.19-2.22.27-.05.01-.11.01-.16.02-.87.09-1.73.18-2.6.25-.48.05-.96.09-1.43.12-.47.04-.94.07-1.42.1-.48.04-.95.07-1.43.09-.48.03-.95.05-1.43.07-.39.02-.79.04-1.19.05-.25.01-.51.02-.76.02-.14,0-.28,0-.42,0-.37.02-.74.02-1.11.03-.23,0-.45.01-.67.01-.52.01-1.04.01-1.56.01-2.61,0-5.22-.08-7.83-.24l-5.99-20.4,1.11.06c-.38-.03-.75-.07-1.12-.12l-3.89-13.24L215.36,372.33c-3.66-12.48-5.38-24.86-5.38-36.91,0-70.06,57.99-128.8,128.73-128.8,10.15,0,20.56,1.21,31.11,3.77l911.33,221.24,41.22,10.01-.21,2.62c.1-.87.18-1.74.26-2.61l1.43.35.09.02,6.37,1.55,11.74,2.85c-.01.12-.03.23-.04.35l1.47.36Z"/>
        <path class="cls-2" d="M1524.85,610.22c0,31.24-11.29,62.96-35.8,88.65l-716.62,751.33c-26.11,27.37-59.78,40.1-93.01,40.1s-67.21-13.18-91.73-37.51c-14.71-14.6-26.23-33.2-32.74-55.38l-1.93-6.57c1.51-.05,3.01-.13,4.51-.22h.01c4.82-.3,9.58-.8,14.31-1.48,39.27-5.65,75.35-24.26,103.48-53.74l716.62-751.33c25.54-26.78,41.95-59.9,47.52-95.92,18.44,6.56,34.25,16.81,47.07,29.54,24.7,24.52,38.31,58.23,38.31,92.53Z"/>
      </g>
    </g>
  </g>
</svg>