<?xml version="1.0" encoding="UTF-8"?>
<svg id="Layer_2" data-name="Layer 2" xmlns="http://www.w3.org/2000/svg" viewBox="0 0 1675.87 1588.05">
  <defs>
    <style>
      .cls-1 {
        fill: #07121c;
      }

      .cls-2 {
        fill: #fcca69;
      }
    </style>
  </defs>
  <g id="Layer_1-2" data-name="Layer 1">
    <g>
      <path class="cls-2" d="M1487.42,511.37c17.74-20.15,29.12-42.96,34.74-66.5l30.65,6.33,18.76,3.87s.09.02.13.04c22.29,6.35,41.52,17.36,57.16,31.49,27.86,25.2,44.33,60.32,46.51,96.84.07,1.09.12,2.18.16,3.28.35,9.73-.32,19.53-2.06,29.26-4.39,24.58-15.64,48.63-34.63,69.57l-644.89,711.02-27.16,29.93-102.84,113.4c-28.23,31.12-65.52,46.46-102.84,47.8-37.98,1.36-75.97-11.77-104.46-37.5-17.09-15.45-30.75-35.42-38.94-59.53l-2.33-6.85c17.99-8.6,34.81-21.05,49.35-37.58l109.19-124.08,28.84-32.76,684.68-778.04Z"/>
      <path class="cls-2" d="M1526.13,399.57c.08,1.19.14,2.38.18,3.58.38,10.66-.32,21.41-2.16,32.06-.55,3.23-1.22,6.45-1.98,9.66l-4.95-1.02-31.39-6.49-39.2-7.84-19.95-3.99c0-.87-.02-1.75-.05-2.62-.02-.67-.04-1.19-.07-1.59l-.02-.23-.02-.22c-1.34-22.92-11.52-44.82-27.91-60.1-9.09-8.47-19.79-14.69-31.82-18.51l-16.4-3.5-35.86-7.67-31.43-6.73-39.25-8.14L205.11,101.16c-7.05-1.46-14.1-2.07-20.99-1.83-46.34,1.66-84.06,42.82-82.37,89.87.3,8.36,1.85,16.83,4.61,25.17l337.45,1021.38,3.8,11.5,9.06,24.63,12.73,34.65.34.94.3.94,9.86,29.81c4.78,14.47,12.58,26.82,23.18,36.69,16.55,15.42,39.2,23.78,62.13,22.95,5.31-.19,11.39-.9,17.87-2.54l2.92,8.59,9.31,24.64,12.61,33.39,7.43,21.88c-19.08,9.14-39.5,13.94-59.91,14.67-40.36,1.45-80.77-12.98-111.08-41.21-18.19-16.94-32.75-38.83-41.47-65.24l-10.41-31.48-13.44-36.58-9.93-27.01-4.34-13.14L8.37,205.06c-4.91-14.86-7.5-29.69-8.02-44.19C-2.68,76.56,63.98,3.38,148.41.35c12.11-.44,24.59.58,37.28,3.2l1097.11,227.16,41.68,8.64,33.39,7.14,37.85,8.11,19.94,4.26c.05,0,.1.02.15.04,23.71,6.97,44.15,19.05,60.79,34.55,29.65,27.62,47.19,66.12,49.54,106.13Z"/>
      <path class="cls-2" d="M1404.73,483.58l-648.26,736.64-27.3,31.02-103.38,117.48c-13.73,15.59-29.1,23.16-42.69,26.6l-1.15-3.41L247.71,407.36c-4.6-13.56-7.02-27.1-7.49-40.34-2.77-76.97,60.02-143.85,139.44-146.7,11.39-.41,23.13.5,35.08,2.89l1011.94,202.32c.04,5.16-.39,10.32-1.26,15.39-2.72,15.8-9.68,30.15-20.69,42.66Z"/>
      <path class="cls-1" d="M625.79,1368.72l103.38-117.48,27.3-31.02,648.26-736.64c11.01-12.51,17.97-26.86,20.69-42.66.87-5.06,1.29-10.22,1.26-15.39l19.95,3.99,39.2,7.84,31.39,6.49,4.95,1.02c-5.63,23.54-17.01,46.35-34.74,66.5l-684.68,778.04-28.84,32.76-109.19,124.08c-14.55,16.52-31.36,28.97-49.35,37.58l-7.43-21.88-12.61-33.39-9.31-24.64-2.92-8.59c13.6-3.44,28.96-11.01,42.69-26.6Z"/>
    </g>
  </g>
</svg>